<svg width="517" height="523" viewBox="0 0 517 523" fill="none" xmlns="http://www.w3.org/2000/svg">
<mask id="mask0_1_21" style="mask-type:alpha" maskUnits="userSpaceOnUse" x="0" y="0" width="517" height="523">
<path d="M235.163 214.104C152.68 238.673 7.01937 294.832 0 522.975C38.6088 398.374 91.257 382.579 210.594 354.5C329.93 326.421 407.991 290.199 470.327 209.331C532.663 128.462 514.2 0 514.2 0C514.2 66.6881 466.817 110.562 421.188 142.151C375.559 173.74 317.646 189.535 235.163 214.104Z" fill="#733C3C"/>
</mask>
<g mask="url(#mask0_1_21)">
<path d="M235.163 214.104C152.68 238.673 7.01938 294.832 0 522.975C26.3243 400.129 91.257 382.579 210.594 354.5C329.93 326.421 394.864 294.832 466.817 208.839C538.77 122.847 514.201 0 514.201 0C514.201 66.6881 466.817 110.562 421.188 142.151C375.559 173.74 317.646 189.535 235.163 214.104Z" fill="url(#paint0_linear_1_21)"/>
<path d="M1.00674 502.815C0.548942 509.382 0.211521 516.1 -2.22027e-06 522.975C-0.459305 516.699 -0.103919 509.941 1.00674 502.815C15.7408 291.476 155.166 237.933 235.163 214.104C317.646 189.535 375.559 173.74 421.188 142.151C466.817 110.562 514.201 66.6882 514.201 1.52588e-05C514.201 1.52588e-05 538.769 122.847 466.816 208.839C394.863 294.832 335.196 259.733 215.859 287.812C106.933 313.442 12.6276 428.26 1.00674 502.815Z" fill="url(#paint1_linear_1_21)"/>
<path d="M228.143 242.183C65.3147 314.551 -1.75764 451.607 -0.00268866 522.975C5.26203 454.532 66.6879 366.785 140.396 347.48C214.103 328.176 356.254 347.48 438.737 263.243C521.22 179.005 514.199 1.52588e-05 514.199 1.52588e-05C514.199 70.2371 401.885 164.965 228.143 242.183Z" fill="url(#paint2_linear_1_21)"/>
<g filter="url(#filter0_f_1_21)">
<path d="M153.262 306.699C135.733 322.695 112.702 342.17 75.4629 368.54C95.8681 345.686 124.334 324.558 153.262 306.699C197.888 265.978 206.846 247.811 323.753 195.853C497.495 118.635 503.671 79.0119 503.671 8.77477C503.671 8.77477 522.975 115.827 445.757 198.309C368.539 280.792 284.301 249.203 270.262 250.958C261.17 252.095 206.436 273.873 153.262 306.699Z" fill="#00418F"/>
</g>
<path d="M228.143 242.183C65.3149 314.551 -1.75743 451.607 -0.00247505 522.975C5.26224 454.532 73.7079 321.156 186.025 300.097C298.342 279.037 368.54 280.792 445.758 198.309C522.975 115.827 514.199 1.52588e-05 514.199 1.52588e-05C514.199 70.2371 401.885 164.965 228.143 242.183Z" fill="url(#paint3_linear_1_21)"/>
<g filter="url(#filter1_f_1_21)">
<path d="M84.9297 357.512C75.067 367.115 70.3169 373.336 68.4431 373.805C72.1667 369.017 77.8251 363.423 84.9297 357.512C112.014 331.14 177.657 279.261 328.176 250.958C377.314 241.598 410.658 212.349 454.532 175.495C498.406 138.641 514.2 66.6882 514.2 1.52588e-05C514.2 1.52588e-05 540.524 138.641 458.041 222.879C375.558 307.116 187.78 301.852 150.925 317.646C125.242 328.653 101.264 343.922 84.9297 357.512Z" fill="#B4162E" fill-opacity="0.6"/>
</g>
<g filter="url(#filter2_f_1_21)">
<path d="M231.653 256.223C187.78 277.282 168.475 291.322 98.2772 336.951C140.396 310.626 145.661 314.136 222.879 272.017C336.951 214.104 361.519 294.832 444.002 210.594C526.485 126.356 514.2 1.52588e-05 514.2 1.52588e-05C514.2 66.6882 501.915 122.847 458.042 159.701C414.168 196.555 275.527 235.163 231.653 256.223Z" fill="#4C2FA9"/>
</g>
<path d="M264.997 231.654C59.6678 270.262 -1.75544 451.607 -0.000486672 522.975C5.26422 454.532 64.9326 375.56 142.15 333.441C256.222 275.527 375.559 307.116 458.042 222.879C540.524 138.641 514.2 1.52588e-05 514.2 1.52588e-05C514.2 66.6882 489.631 129.866 445.757 166.72C401.883 203.574 314.136 222.294 264.997 231.654Z" fill="url(#paint4_linear_1_21)"/>
</g>
<defs>
<filter id="filter0_f_1_21" x="8.07281" y="-58.6154" width="565.133" height="494.545" filterUnits="userSpaceOnUse" color-interpolation-filters="sRGB">
<feFlood flood-opacity="0" result="BackgroundImageFix"/>
<feBlend mode="normal" in="SourceGraphic" in2="BackgroundImageFix" result="shape"/>
<feGaussianBlur stdDeviation="33.6951" result="effect1_foregroundBlur_1_21"/>
</filter>
<filter id="filter1_f_1_21" x="48.2261" y="-20.217" width="490.186" height="414.239" filterUnits="userSpaceOnUse" color-interpolation-filters="sRGB">
<feFlood flood-opacity="0" result="BackgroundImageFix"/>
<feBlend mode="normal" in="SourceGraphic" in2="BackgroundImageFix" result="shape"/>
<feGaussianBlur stdDeviation="10.1085" result="effect1_foregroundBlur_1_21"/>
</filter>
<filter id="filter2_f_1_21" x="84.2376" y="-14.0396" width="444.649" height="365.03" filterUnits="userSpaceOnUse" color-interpolation-filters="sRGB">
<feFlood flood-opacity="0" result="BackgroundImageFix"/>
<feBlend mode="normal" in="SourceGraphic" in2="BackgroundImageFix" result="shape"/>
<feGaussianBlur stdDeviation="7.0198" result="effect1_foregroundBlur_1_21"/>
</filter>
<linearGradient id="paint0_linear_1_21" x1="135.131" y1="335.196" x2="122.847" y2="517.711" gradientUnits="userSpaceOnUse">
<stop stop-color="#FD5200"/>
<stop offset="0.27225" stop-color="#FFDC38"/>
<stop offset="0.96259" stop-color="#F3FEAB"/>
</linearGradient>
<linearGradient id="paint1_linear_1_21" x1="340.46" y1="138.641" x2="-5.26501" y2="387.844" gradientUnits="userSpaceOnUse">
<stop stop-color="#0C64CC"/>
<stop offset="0.28457" stop-color="#1F9FE3"/>
<stop offset="0.485108" stop-color="#1B9DEB"/>
<stop offset="0.756932" stop-color="#72F07F"/>
<stop offset="0.858448" stop-color="#DBFEC8"/>
<stop offset="0.991306" stop-color="#F6F9B1"/>
</linearGradient>
<linearGradient id="paint2_linear_1_21" x1="342.286" y1="22.323" x2="219.369" y2="496.651" gradientUnits="userSpaceOnUse">
<stop offset="0.407169" stop-color="#9E010A"/>
<stop offset="0.624404" stop-color="#FC56A4"/>
<stop offset="0.688975" stop-color="#F2A780"/>
<stop offset="0.743082" stop-color="#FFC78A"/>
</linearGradient>
<linearGradient id="paint3_linear_1_21" x1="505.426" y1="85.9926" x2="358.01" y2="-1.75492" gradientUnits="userSpaceOnUse">
<stop stop-color="#4226A2"/>
<stop offset="0.322086" stop-color="#7357CB"/>
<stop offset="0.628334" stop-color="#3B8FE4"/>
</linearGradient>
<linearGradient id="paint4_linear_1_21" x1="521.22" y1="68.4431" x2="7.01976" y2="470.327" gradientUnits="userSpaceOnUse">
<stop stop-color="#7C4ADF"/>
<stop offset="0.345854" stop-color="#E251D8"/>
<stop offset="0.729692" stop-color="#FCDFBC"/>
<stop offset="0.831215" stop-color="#F6F8B0"/>
<stop offset="0.918555" stop-color="#FFFFF2"/>
<stop offset="0.98944" stop-color="#F6F8B0"/>
</linearGradient>
</defs>
</svg>
