<svg width="266" height="266" viewBox="0 0 266 266" fill="none" xmlns="http://www.w3.org/2000/svg">
<rect width="266" height="266" rx="59" fill="#111717"/>
<path d="M146.727 134.13L98.3945 182.467C97.9544 182.907 97.2518 182.952 96.7641 182.566C96.1766 182.1 95.5947 181.627 95.0213 181.144L90.9118 177.034L84.8581 170.979C84.2837 170.296 83.724 169.6 83.1738 168.897C82.7918 168.409 82.8382 167.709 83.2766 167.27L131.609 118.933C132.128 118.413 132.977 118.47 133.434 119.045C137.32 123.943 141.743 128.396 146.619 132.309C147.19 132.767 147.244 133.612 146.727 134.13ZM121.244 97.9388C118.6 91.2553 116.785 84.1566 115.959 76.7596C115.845 75.7412 114.6 75.3114 113.876 76.0361L68.4253 121.492C66.6371 123.28 65.7405 125.794 66.0657 128.302C66.9094 134.809 68.5101 141.08 70.7724 147.028C71.087 147.855 72.1596 148.073 72.7854 147.447L120.974 99.2527C121.32 98.9074 121.423 98.3927 121.244 97.9388ZM189.208 150.047C181.663 149.201 174.43 147.326 167.631 144.591C167.176 144.408 166.659 144.511 166.313 144.858L118.123 193.052C117.499 193.676 117.713 194.748 118.536 195.066C124.579 197.406 130.958 199.064 137.584 199.934C139.297 200.158 141.008 199.803 142.495 198.994L190.288 151.196C190.255 150.639 189.849 150.119 189.208 150.047ZM198.524 86.282H198.772C199.45 86.282 200 85.7323 200 85.0542V67.2277C200 66.5497 199.45 66 198.772 66H180.948C180.27 66 179.72 66.5497 179.72 67.2277V67.4762C179.72 77.8623 188.139 86.282 198.524 86.282ZM198.772 107.719H198.524C176.301 107.719 158.286 89.7017 158.286 67.4765V67.2278C158.286 66.5498 157.736 66.0001 157.058 66.0001H138.079C137.401 66.0001 136.852 66.5498 136.852 67.2278V67.476C136.852 101.541 164.464 129.155 198.524 129.155H198.772C199.45 129.155 200 128.606 200 127.928V108.946C200 108.268 199.45 107.719 198.772 107.719Z" fill="white"/>
</svg>
